<?xml version="1.0" encoding="UTF-8" standalone="no"?>
<!DOCTYPE svg PUBLIC "-//W3C//DTD SVG 1.1//EN" "http://www.w3.org/Graphics/SVG/1.1/DTD/svg11.dtd">
<svg version="1.1" xmlns="http://www.w3.org/2000/svg" xmlns:xlink="http://www.w3.org/1999/xlink" preserveAspectRatio="xMidYMid meet" viewBox="46.17466410748557 140.7312859884836 496.38089144807077 246.0000000000001" width="490.38" height="240"><defs><path d="M169.17 143.73L217.17 143.73L217.17 383.73L169.17 383.73L169.17 143.73Z" id="c1QQ4UHwk6"></path><path d="M193.17 311.73C193.17 351.47 160.91 383.73 121.17 383.73C81.44 383.73 49.17 351.47 49.17 311.73C49.17 271.99 81.44 239.73 121.17 239.73C160.91 239.73 193.17 271.99 193.17 311.73Z" id="b1IzhFEGjN"></path><path d="M189.93 308.68L189.93 308.65L189.93 308.61L189.93 308.61L189.93 308.6L189.93 308.59L189.93 308.58L189.93 308.58L189.93 308.57L189.93 308.56L189.93 308.55L189.93 308.54L189.93 308.54L189.93 308.53L189.93 308.52L189.93 308.51L189.93 308.5L189.93 308.49L189.93 308.48L189.93 308.47L189.93 308.46L189.93 308.45L189.93 308.44L189.93 308.44L189.93 308.43L189.93 308.42L189.93 308.41L189.93 308.4L189.93 308.39L189.93 308.38L189.93 308.37L189.93 308.37L189.93 308.36L189.93 308.35L189.93 308.34L189.93 308.34L189.93 308.33L189.93 308.32L189.93 308.31L189.93 308.31L189.93 308.3L189.93 308.3L189.93 308.29L189.93 308.28L189.93 308.28L189.93 308.27L189.93 308.27L189.93 308.26L189.93 308.26L189.93 308.26L189.93 308.25L189.93 308.25L189.93 308.25L189.93 308.24L189.93 308.24L189.93 308.24L189.93 308.24L189.93 308.24L189.93 308.24L189.93 308.24L189.93 308.24L189.93 308.24L189.93 308.24L189.93 308.24L189.93 308.24L189.93 308.24L189.93 308.24L189.93 308.24L189.93 308.25L189.93 308.25L189.93 308.25L189.93 308.26L189.93 308.26L189.93 308.26L189.93 308.27L189.93 308.27L189.93 308.28L189.93 308.28L189.93 308.29L189.93 308.3L189.93 308.3L189.93 308.31L189.93 308.31L189.93 308.32L189.93 308.33L189.93 308.34L189.93 308.34L189.93 308.35L189.93 308.36L189.93 308.37L189.93 308.37L189.93 308.38L189.93 308.39L189.93 308.4L189.93 308.41L189.93 308.42L189.93 308.43L189.93 308.44L189.93 308.44L189.93 308.45L189.93 308.46L189.93 308.47L189.93 308.48L189.93 308.49L189.93 308.5L189.93 308.51L189.93 308.52L189.93 308.53L189.93 308.54L189.93 308.54L189.93 308.55L189.93 308.56L189.93 308.57L189.93 308.58L189.93 308.58L189.93 308.59L189.93 308.6L189.93 308.61L189.93 308.61L189.93 308.62L189.93 308.62L189.93 308.63L189.93 308.64L189.93 308.64L189.93 308.65L189.93 308.65L189.93 308.66L189.93 308.66L189.93 308.67L189.93 308.67L189.93 308.67L189.93 308.68L189.93 308.68L189.93 308.68L189.93 308.69L189.93 308.69L189.93 308.69L189.93 308.69L189.93 308.69L189.93 308.69L189.93 308.69L189.93 308.69L189.93 308.69L189.93 308.69L189.93 308.69L189.93 308.69L189.93 308.69L189.93 308.68L189.93 308.68L189.93 308.68L189.93 308.73L189.93 308.69L189.93 308.75L189.93 308.74L189.93 308.68ZM189.93 308.62L189.93 308.62L189.93 308.62L189.93 308.62L189.93 308.62L189.93 308.62L189.93 308.62L189.93 308.62L189.93 308.62L189.93 308.62L189.93 308.61L189.93 308.61L189.93 308.61L189.93 308.61L189.93 308.61L189.93 308.61L189.93 308.61L189.93 308.6L189.93 308.6L189.93 308.6L189.93 308.6L189.93 308.6L189.93 308.59L189.93 308.59L189.93 308.59L189.93 308.59L189.93 308.58L189.93 308.58L189.93 308.58L189.93 308.58L189.93 308.57L189.93 308.57L189.93 308.57L189.93 308.56L189.93 308.56L189.93 308.56L189.93 308.56L189.93 308.55L189.93 308.55L189.93 308.55L189.93 308.54L189.93 308.54L189.93 308.54L189.93 308.54L189.93 308.53L189.93 308.53L189.93 308.53L189.93 308.53L189.93 308.52L189.93 308.52L189.93 308.52L189.93 308.52L189.93 308.51L189.93 308.51L189.93 308.51L189.93 308.51L189.93 308.5L189.93 308.5L189.93 308.5L189.93 308.5L189.93 308.5L189.93 308.49L189.93 308.49L189.93 308.49L189.93 308.49L189.93 308.49L189.93 308.49L189.93 308.49L189.93 308.48L189.93 308.48L189.93 308.48L189.93 308.48L189.93 308.48L189.93 308.48L189.93 308.48L189.93 308.48L189.93 308.48L189.93 308.48L189.93 308.48L189.93 308.48L189.93 308.48L189.93 308.48L189.93 308.48L189.93 308.48L189.93 308.48L189.93 308.48L189.93 308.48L189.93 308.48L189.93 308.48L189.93 308.48L189.93 308.49L189.93 308.49L189.93 308.49L189.93 308.49L189.93 308.49L189.93 308.49L189.93 308.5L189.93 308.5L189.93 308.5L189.93 308.5L189.93 308.5L189.93 308.5L189.93 308.51L189.93 308.51L189.93 308.51L189.93 308.51L189.93 308.52L189.93 308.52L189.93 308.52L189.93 308.52L189.93 308.53L189.93 308.53L189.93 308.53L189.93 308.54L189.93 308.54L189.93 308.54L189.93 308.54L189.93 308.55L189.93 308.55L189.93 308.55L189.93 308.56L189.93 308.56L189.93 308.56L189.93 308.56L189.93 308.57L189.93 308.57L189.93 308.57L189.93 308.57L189.93 308.58L189.93 308.58L189.93 308.58L189.93 308.58L189.93 308.59L189.93 308.59L189.93 308.59L189.93 308.59L189.93 308.6L189.93 308.6L189.93 308.6L189.93 308.6L189.93 308.6L189.93 308.61L189.93 308.61L189.93 308.61L189.93 308.61L189.93 308.61L189.93 308.61L189.93 308.61L189.93 308.62L189.93 308.62L189.93 308.62L189.93 308.62L189.93 308.62L189.93 308.62L189.93 308.62L189.93 308.62L189.93 308.62L189.93 308.62L189.93 308.62L189.93 308.62L189.93 308.62ZM189.93 308.84L189.93 308.81L189.93 308.76L189.93 308.79L189.93 308.76L189.93 308.81L189.93 308.84L189.93 308.85L189.93 308.89L189.93 308.85L189.93 308.84Z" id="i90Wvt8TA"></path><path d="M377.4 311.73C377.4 351.47 345.13 383.73 305.4 383.73C265.66 383.73 233.4 351.47 233.4 311.73C233.4 271.99 265.66 239.73 305.4 239.73C345.13 239.73 377.4 271.99 377.4 311.73Z" id="d2Asudqeif"></path><path d="M392.39 383.73L536.39 239.73L392.39 239.73L392.39 383.73Z" id="a8oejWJncB"></path><path d="M434.56 299.73L401.56 239.73L467.56 239.73L533.56 239.73L500.56 299.73L467.56 359.73L434.56 299.73Z" id="b2G5dyVlD6"></path><path d="M539.56 383.73L395.56 239.73L539.56 239.73L539.56 383.73Z" id="b5d11tVSis"></path></defs><g><g><use xlink:href="#c1QQ4UHwk6" opacity="1" fill="#404F36" fill-opacity="0.72"></use><g><use xlink:href="#c1QQ4UHwk6" opacity="1" fill-opacity="0" stroke="#404F36" stroke-width="6" stroke-opacity="0.96"></use></g></g><g><use xlink:href="#b1IzhFEGjN" opacity="1" fill="#57a6f8" fill-opacity="0.72"></use><g><use xlink:href="#b1IzhFEGjN" opacity="1" fill-opacity="0" stroke="#57a6f8" stroke-width="6" stroke-opacity="0.96"></use></g></g><g><use xlink:href="#i90Wvt8TA" opacity="1" fill="#404F36" fill-opacity="0.99"></use></g><g><use xlink:href="#d2Asudqeif" opacity="1" fill="#efd565" fill-opacity="0.72"></use><g><use xlink:href="#d2Asudqeif" opacity="1" fill-opacity="0" stroke="#efd565" stroke-width="6" stroke-opacity="0.96"></use></g></g><g><use xlink:href="#a8oejWJncB" opacity="1" fill="#fe9400" fill-opacity="0.72"></use><g><use xlink:href="#a8oejWJncB" opacity="1" fill-opacity="0" stroke="#fe9400" stroke-width="6" stroke-opacity="0.96"></use></g></g><g><use xlink:href="#b2G5dyVlD6" opacity="1" fill="#f2a7dd" fill-opacity="0.72"></use><g><use xlink:href="#b2G5dyVlD6" opacity="1" fill-opacity="0" stroke="#f2a7dd" stroke-width="6" stroke-opacity="0.96"></use></g></g><g><use xlink:href="#b5d11tVSis" opacity="1" fill="#ee6a64" fill-opacity="0.72"></use><g><use xlink:href="#b5d11tVSis" opacity="1" fill-opacity="0" stroke="#ee6a64" stroke-width="6" stroke-opacity="0.96"></use></g></g></g></svg>