<?xml version="1.0" encoding="utf-8"?>
<svg viewBox="46.17466410748557 140.7312859884836 496.38089144807077 246.0000000000001" xmlns="http://www.w3.org/2000/svg">
  <defs>
    <linearGradient gradientUnits="userSpaceOnUse" x1="121.17" y1="239.73" x2="121.17" y2="383.73" id="gradient-8">
      <stop offset="0" style="stop-color: rgb(17.647% 26.667% 13.725%)"/>
      <stop offset="1" style="stop-color: rgb(8.7134% 17.461% 4.9515%)"/>
    </linearGradient>
    <linearGradient gradientUnits="userSpaceOnUse" x1="121.17" y1="239.73" x2="121.17" y2="383.73" id="gradient-9">
      <stop offset="0" style="stop-color: rgb(17.647% 26.667% 13.725%)"/>
      <stop offset="1" style="stop-color: rgb(8.7134% 17.461% 4.9515%)"/>
    </linearGradient>
    <linearGradient gradientUnits="userSpaceOnUse" x1="193.17" y1="143.73" x2="193.17" y2="383.73" id="gradient-2">
      <stop offset="0" style="stop-color: rgb(21.961% 30.98% 18.431%)"/>
      <stop offset="1" style="stop-color: rgb(11.183% 19.873% 8.1387%)"/>
    </linearGradient>
    <linearGradient gradientUnits="userSpaceOnUse" x1="193.17" y1="143.73" x2="193.17" y2="383.73" id="gradient-3">
      <stop offset="0" style="stop-color: rgb(21.961% 30.98% 18.431%)"/>
      <stop offset="1" style="stop-color: rgb(11.183% 19.873% 8.1387%)"/>
    </linearGradient>
    <linearGradient gradientUnits="userSpaceOnUse" x1="305.4" y1="239.73" x2="305.4" y2="383.73" id="gradient-6" spreadMethod="repeat">
      <stop offset="0" style="stop-color: rgb(16.078% 22.745% 13.333%)"/>
      <stop offset="1" style="stop-color: rgb(8.7179% 15.099% 6.0568%)"/>
    </linearGradient>
    <linearGradient gradientUnits="userSpaceOnUse" x1="305.4" y1="239.73" x2="305.4" y2="383.73" id="gradient-7" spreadMethod="repeat">
      <stop offset="0" style="stop-color: rgb(16.078% 22.745% 13.333%)"/>
      <stop offset="1" style="stop-color: rgb(8.7179% 15.099% 6.0568%)"/>
    </linearGradient>
    <linearGradient gradientUnits="userSpaceOnUse" x1="467.56" y1="239.73" x2="467.56" y2="383.73" id="gradient-0">
      <stop offset="0" style="stop-color: rgb(25.882% 35.686% 21.961%)"/>
      <stop offset="1" style="stop-color: rgb(13.138% 22.546% 9.7719%)"/>
    </linearGradient>
    <linearGradient gradientUnits="userSpaceOnUse" x1="467.56" y1="239.73" x2="467.56" y2="383.73" id="gradient-1">
      <stop offset="0" style="stop-color: rgb(25.882% 35.686% 21.961%)"/>
      <stop offset="1" style="stop-color: rgb(13.138% 22.546% 9.7719%)"/>
    </linearGradient>
  </defs>
  <g style="transform-origin: 294.476px 263.73px;" transform="matrix(1, 0, 0, 1, 0.000010000002, 0)">
    <g transform="matrix(1, 0, 0, -1, 1.829992, 623.459961)" style="">
      <path d="M193.17 311.73C193.17 351.47 160.91 383.73 121.17 383.73C81.44 383.73 49.17 351.47 49.17 311.73C49.17 271.99 81.44 239.73 121.17 239.73C160.91 239.73 193.17 271.99 193.17 311.73Z" opacity="1" style="paint-order: stroke; fill-rule: nonzero; stroke-linecap: round; stroke-miterlimit: 14.26; stroke-width: 0px; stroke: rgb(186, 218, 85); fill: url('#gradient-8'); fill-opacity: 0.7;"/>
      <g>
        <path d="M193.17 311.73C193.17 351.47 160.91 383.73 121.17 383.73C81.44 383.73 49.17 351.47 49.17 311.73C49.17 271.99 81.44 239.73 121.17 239.73C160.91 239.73 193.17 271.99 193.17 311.73Z" opacity="1" style="paint-order: stroke; fill-rule: nonzero; stroke-linecap: round; stroke-miterlimit: 14.26; stroke-width: 0px; stroke: rgb(186, 218, 85); fill: url('#gradient-9'); fill-opacity: 0.7;"/>
      </g>
    </g>
    <g>
      <path d="M169.17 143.73L217.17 143.73L217.17 383.73L169.17 383.73L169.17 143.73Z" opacity="1" style="paint-order: stroke; fill-rule: nonzero; stroke-linecap: round; stroke-miterlimit: 14.26; stroke-width: 0px; stroke: rgb(186, 218, 85); fill: url('#gradient-2'); fill-opacity: 0.7;"/>
      <g>
        <path d="M169.17 143.73L217.17 143.73L217.17 383.73L169.17 383.73L169.17 143.73Z" opacity="1" style="paint-order: stroke; fill-rule: nonzero; stroke-linecap: round; stroke-miterlimit: 14.26; stroke-width: 0px; stroke: rgb(186, 218, 85); fill: url('#gradient-3'); fill-opacity: 0.7;"/>
      </g>
    </g>
    <g>
      <path d="M189.93 308.68L189.93 308.65L189.93 308.61L189.93 308.61L189.93 308.6L189.93 308.59L189.93 308.58L189.93 308.58L189.93 308.57L189.93 308.56L189.93 308.55L189.93 308.54L189.93 308.54L189.93 308.53L189.93 308.52L189.93 308.51L189.93 308.5L189.93 308.49L189.93 308.48L189.93 308.47L189.93 308.46L189.93 308.45L189.93 308.44L189.93 308.44L189.93 308.43L189.93 308.42L189.93 308.41L189.93 308.4L189.93 308.39L189.93 308.38L189.93 308.37L189.93 308.37L189.93 308.36L189.93 308.35L189.93 308.34L189.93 308.34L189.93 308.33L189.93 308.32L189.93 308.31L189.93 308.31L189.93 308.3L189.93 308.3L189.93 308.29L189.93 308.28L189.93 308.28L189.93 308.27L189.93 308.27L189.93 308.26L189.93 308.26L189.93 308.26L189.93 308.25L189.93 308.25L189.93 308.25L189.93 308.24L189.93 308.24L189.93 308.24L189.93 308.24L189.93 308.24L189.93 308.24L189.93 308.24L189.93 308.24L189.93 308.24L189.93 308.24L189.93 308.24L189.93 308.24L189.93 308.24L189.93 308.24L189.93 308.24L189.93 308.25L189.93 308.25L189.93 308.25L189.93 308.26L189.93 308.26L189.93 308.26L189.93 308.27L189.93 308.27L189.93 308.28L189.93 308.28L189.93 308.29L189.93 308.3L189.93 308.3L189.93 308.31L189.93 308.31L189.93 308.32L189.93 308.33L189.93 308.34L189.93 308.34L189.93 308.35L189.93 308.36L189.93 308.37L189.93 308.37L189.93 308.38L189.93 308.39L189.93 308.4L189.93 308.41L189.93 308.42L189.93 308.43L189.93 308.44L189.93 308.44L189.93 308.45L189.93 308.46L189.93 308.47L189.93 308.48L189.93 308.49L189.93 308.5L189.93 308.51L189.93 308.52L189.93 308.53L189.93 308.54L189.93 308.54L189.93 308.55L189.93 308.56L189.93 308.57L189.93 308.58L189.93 308.58L189.93 308.59L189.93 308.6L189.93 308.61L189.93 308.61L189.93 308.62L189.93 308.62L189.93 308.63L189.93 308.64L189.93 308.64L189.93 308.65L189.93 308.65L189.93 308.66L189.93 308.66L189.93 308.67L189.93 308.67L189.93 308.67L189.93 308.68L189.93 308.68L189.93 308.68L189.93 308.69L189.93 308.69L189.93 308.69L189.93 308.69L189.93 308.69L189.93 308.69L189.93 308.69L189.93 308.69L189.93 308.69L189.93 308.69L189.93 308.69L189.93 308.69L189.93 308.69L189.93 308.68L189.93 308.68L189.93 308.68L189.93 308.73L189.93 308.69L189.93 308.75L189.93 308.74L189.93 308.68ZM189.93 308.62L189.93 308.62L189.93 308.62L189.93 308.62L189.93 308.62L189.93 308.62L189.93 308.62L189.93 308.62L189.93 308.62L189.93 308.62L189.93 308.61L189.93 308.61L189.93 308.61L189.93 308.61L189.93 308.61L189.93 308.61L189.93 308.61L189.93 308.6L189.93 308.6L189.93 308.6L189.93 308.6L189.93 308.6L189.93 308.59L189.93 308.59L189.93 308.59L189.93 308.59L189.93 308.58L189.93 308.58L189.93 308.58L189.93 308.58L189.93 308.57L189.93 308.57L189.93 308.57L189.93 308.56L189.93 308.56L189.93 308.56L189.93 308.56L189.93 308.55L189.93 308.55L189.93 308.55L189.93 308.54L189.93 308.54L189.93 308.54L189.93 308.54L189.93 308.53L189.93 308.53L189.93 308.53L189.93 308.53L189.93 308.52L189.93 308.52L189.93 308.52L189.93 308.52L189.93 308.51L189.93 308.51L189.93 308.51L189.93 308.51L189.93 308.5L189.93 308.5L189.93 308.5L189.93 308.5L189.93 308.5L189.93 308.49L189.93 308.49L189.93 308.49L189.93 308.49L189.93 308.49L189.93 308.49L189.93 308.49L189.93 308.48L189.93 308.48L189.93 308.48L189.93 308.48L189.93 308.48L189.93 308.48L189.93 308.48L189.93 308.48L189.93 308.48L189.93 308.48L189.93 308.48L189.93 308.48L189.93 308.48L189.93 308.48L189.93 308.48L189.93 308.48L189.93 308.48L189.93 308.48L189.93 308.48L189.93 308.48L189.93 308.48L189.93 308.48L189.93 308.49L189.93 308.49L189.93 308.49L189.93 308.49L189.93 308.49L189.93 308.49L189.93 308.5L189.93 308.5L189.93 308.5L189.93 308.5L189.93 308.5L189.93 308.5L189.93 308.51L189.93 308.51L189.93 308.51L189.93 308.51L189.93 308.52L189.93 308.52L189.93 308.52L189.93 308.52L189.93 308.53L189.93 308.53L189.93 308.53L189.93 308.54L189.93 308.54L189.93 308.54L189.93 308.54L189.93 308.55L189.93 308.55L189.93 308.55L189.93 308.56L189.93 308.56L189.93 308.56L189.93 308.56L189.93 308.57L189.93 308.57L189.93 308.57L189.93 308.57L189.93 308.58L189.93 308.58L189.93 308.58L189.93 308.58L189.93 308.59L189.93 308.59L189.93 308.59L189.93 308.59L189.93 308.6L189.93 308.6L189.93 308.6L189.93 308.6L189.93 308.6L189.93 308.61L189.93 308.61L189.93 308.61L189.93 308.61L189.93 308.61L189.93 308.61L189.93 308.61L189.93 308.62L189.93 308.62L189.93 308.62L189.93 308.62L189.93 308.62L189.93 308.62L189.93 308.62L189.93 308.62L189.93 308.62L189.93 308.62L189.93 308.62L189.93 308.62L189.93 308.62ZM189.93 308.84L189.93 308.81L189.93 308.76L189.93 308.79L189.93 308.76L189.93 308.81L189.93 308.84L189.93 308.85L189.93 308.89L189.93 308.85L189.93 308.84Z" opacity="1" style="paint-order: stroke; fill-rule: nonzero; stroke-linecap: round; stroke-miterlimit: 14.26; stroke-width: 0px; stroke: rgb(186, 218, 85); fill-opacity: 0.8; fill: rgb(41, 58, 34);"/>
    </g>
    <g>
      <path d="M377.4 311.73C377.4 351.47 345.13 383.73 305.4 383.73C265.66 383.73 233.4 351.47 233.4 311.73C233.4 271.99 265.66 239.73 305.4 239.73C345.13 239.73 377.4 271.99 377.4 311.73Z" opacity="1" style="paint-order: stroke; fill-rule: nonzero; stroke-linecap: round; stroke-miterlimit: 14.26; stroke-width: 0px; stroke: rgb(186, 218, 85); fill: url('#gradient-6'); fill-opacity: 0.7;"/>
      <g>
        <path d="M377.4 311.73C377.4 351.47 345.13 383.73 305.4 383.73C265.66 383.73 233.4 351.47 233.4 311.73C233.4 271.99 265.66 239.73 305.4 239.73C345.13 239.73 377.4 271.99 377.4 311.73Z" opacity="1" style="paint-order: stroke; fill-rule: nonzero; stroke-linecap: round; stroke-miterlimit: 14.26; stroke-width: 0px; stroke: rgb(186, 218, 85); fill: url('#gradient-7'); fill-opacity: 0.7;"/>
      </g>
    </g>
    <g transform="matrix(1, 0, 0, 1, 1.226985, 3.001275)">
      <path d="M392.39 383.73L536.39 239.73L392.39 239.73L392.39 383.73Z" opacity="1" style="paint-order: stroke; fill-rule: nonzero; stroke-linecap: round; stroke-miterlimit: 14.26; stroke-width: 0px; stroke: rgb(186, 218, 85); fill: rgb(41, 58, 34); fill-opacity: 0.7;"/>
      <g>
        <path d="M392.39 383.73L536.39 239.73L392.39 239.73L392.39 383.73Z" opacity="1" style="paint-order: stroke; fill-rule: nonzero; stroke-linecap: round; stroke-miterlimit: 14.26; stroke-width: 0px; stroke: rgb(186, 218, 85); fill: rgb(41, 58, 34); fill-opacity: 0.7;"/>
      </g>
    </g>
    <g transform="matrix(1, 0, 0, 1, -0.942998, 3.001275)">
      <path d="M539.56 383.73L395.56 239.73L539.56 239.73L539.56 383.73Z" opacity="1" style="paint-order: stroke; fill-rule: nonzero; stroke-linecap: round; stroke-miterlimit: 14.26; stroke-width: 0px; stroke: rgb(186, 218, 85); fill: url('#gradient-0'); fill-opacity: 0.7;"/>
      <g>
        <path d="M539.56 383.73L395.56 239.73L539.56 239.73L539.56 383.73Z" opacity="1" style="paint-order: stroke; fill-rule: nonzero; stroke-linecap: round; stroke-miterlimit: 14.26; stroke-width: 0px; stroke: rgb(186, 218, 85); fill: url('#gradient-1'); fill-opacity: 0.7;"/>
      </g>
    </g>
  </g>
</svg>